<?xml version="1.0" encoding="UTF-8" standalone="no"?>
<svg width="32px" height="32px" viewBox="0 0 32 32" version="1.1" xmlns="http://www.w3.org/2000/svg" xmlns:xlink="http://www.w3.org/1999/xlink" xmlns:sketch="http://www.bohemiancoding.com/sketch/ns">
    <!-- Generator: Sketch 3.4 (15575) - http://www.bohemiancoding.com/sketch -->
    <title>icon-share-facebook-gray</title>
    <desc>Created with Sketch.</desc>
    <defs></defs>
    <g id="Page-1" stroke="none" stroke-width="1" fill="none" fill-rule="evenodd" sketch:type="MSPage">
        <g id="icon-share-facebook" sketch:type="MSLayerGroup" transform="translate(4.000000, 4.000000)" fill="#999999">
            <g id="Page-1" sketch:type="MSShapeGroup">
                <path d="M12,0 C5.372625,0 0,5.372625 0,12 C0,18.627375 5.372625,24 12,24 L12,15 L9,15 L9,12 L12,12 L12,9.75 C12,7.678875 13.678875,6 15.75,6 L19.5,6 L19.5,9 L15.75,9 C15.335625,9 15,9.335625 15,9.75 L15,12 L19.125,12 L18.375,15 L15,15 L15,23.622 C20.17575,22.29 24,17.591625 24,12 C24,5.372625 18.627375,0 12,0 L12,0 L12,0 Z" id="Shape"></path>
            </g>
        </g>
    </g>
</svg>