<?xml version="1.0" encoding="UTF-8" standalone="no"?>
<svg width="98px" height="110px" viewBox="0 0 98 110" version="1.1" xmlns="http://www.w3.org/2000/svg" xmlns:xlink="http://www.w3.org/1999/xlink" xmlns:sketch="http://www.bohemiancoding.com/sketch/ns">
    <!-- Generator: Sketch 3.4 (15575) - http://www.bohemiancoding.com/sketch -->
    <title>TTT-pattern</title>
    <desc>Created with Sketch.</desc>
    <defs>
        <path id="path-1" d="M0,0.6492 L85.4496,0.6492 L85.4496,92.4 L0,92.4 L0,0.6492 Z"></path>
        <path id="path-3" d="M0,0.6492 L85.4496,0.6492 L85.4496,92.4 L0,92.4 L0,0.6492 Z"></path>
        <path id="path-5" d="M0,0.6492 L85.4496,0.6492 L85.4496,92.4 L0,92.4 L0,0.6492 Z"></path>
    </defs>
    <g id="Page-1" stroke="none" stroke-width="1" fill="none" fill-rule="evenodd" sketch:type="MSPage">
        <g sketch:type="MSLayerGroup" transform="translate(5.800000, 8.200000)">
            <g id="Group-8" transform="translate(0.000000, 1.200000)">
                <path d="M18.76992,19.55628 C14.78112,19.55628 11.54712,22.78908 11.54712,26.77908 C11.54712,30.76908 14.78112,33.99948 18.76992,33.99948 C22.75992,33.99948 25.98912,30.76908 25.98912,26.77908 C25.98912,22.78908 22.75992,19.55628 18.76992,19.55628" id="Fill-1" fill="#121212" sketch:type="MSShapeGroup"></path>
                <g id="Group-5">
                    <mask id="mask-2" sketch:name="Clip 4" fill="white">
                        <use xlink:href="#path-1"></use>
                    </mask>
                    <g id="Clip-4"></g>
                    <path d="M16.66524,13.15548 L16.66524,0.64908 L8.33244,0.64908 L-0.00036,0.64908 L-0.00036,13.15548 L-0.00036,33.99948 L8.33244,33.99948 L8.33244,13.15548 L16.66524,13.15548 Z" id="Fill-3" fill="#121212" sketch:type="MSShapeGroup" mask="url(#mask-2)"></path>
                </g>
                <path d="M33.52272,0.6492 L25.03872,0.6492 L25.03872,13.1556 L33.52272,13.1556 L33.52272,33.9996 L37.51752,33.9996 L37.51752,13.1556 L37.51752,0.6492 L33.52272,0.6492 Z" id="Fill-6" fill="#121212" sketch:type="MSShapeGroup"></path>
            </g>
            <g id="Group-30" transform="translate(0.000000, 1.200000)">
                <path d="M62.52072,13.95828 L62.52072,15.99948 L61.95672,15.99948 L61.95672,13.95828 L61.17912,13.95828 L61.17912,13.43748 L63.30192,13.43748 L63.30192,13.95828 L62.52072,13.95828 Z" id="Fill-9" fill="#626262" sketch:type="MSShapeGroup"></path>
                <path d="M65.1024,14.09772 L64.7628,14.92692 L65.4444,14.92692 L65.1024,14.09772 Z M65.8776,15.99972 L65.6412,15.42372 L64.5612,15.42372 L64.3272,15.99972 L63.7524,15.99972 L64.8504,13.42212 L65.37,13.42212 L66.468,15.99972 L65.8776,15.99972 Z" id="Fill-11" fill="#626262" sketch:type="MSShapeGroup"></path>
                <path d="M67.40508,15.9996 L67.40508,13.4376 L67.96788,13.4376 L67.96788,15.4884 L69.24348,15.4884 L69.24348,15.9996 L67.40508,15.9996 Z" id="Fill-13" fill="#626262" sketch:type="MSShapeGroup"></path>
                <path d="M71.85,15.9996 L71.058,14.91 L70.7616,15.2172 L70.7616,15.9996 L70.1964,15.9996 L70.1964,13.4376 L70.7616,13.4376 L70.7616,14.5584 L71.796,13.4376 L72.4788,13.4376 L71.4348,14.5248 L72.5268,15.9996 L71.85,15.9996 Z" id="Fill-15" fill="#626262" sketch:type="MSShapeGroup"></path>
                <path d="M65.37888,18.78636 L65.37888,20.82756 L64.81248,20.82756 L64.81248,18.78636 L64.03368,18.78636 L64.03368,18.26676 L66.15528,18.26676 L66.15528,18.78636 L65.37888,18.78636 Z" id="Fill-17" fill="#626262" sketch:type="MSShapeGroup"></path>
                <path d="M69.08328,19.54812 C69.08328,19.10892 68.76288,18.74292 68.30688,18.74292 C67.85448,18.74292 67.53648,19.10172 67.53648,19.53852 L67.53648,19.54812 C67.53648,19.98612 67.85928,20.35092 68.31288,20.35092 C68.76768,20.35092 69.08328,19.99332 69.08328,19.55532 L69.08328,19.54812 Z M68.30688,20.87292 C67.51848,20.87292 66.94968,20.28372 66.94968,19.55532 L66.94968,19.54812 C66.94968,18.81972 67.52448,18.22212 68.31288,18.22212 C69.10608,18.22212 69.67248,18.81372 69.67248,19.53852 L69.67248,19.54812 C69.67248,20.27532 69.09768,20.87292 68.30688,20.87292 L68.30688,20.87292 Z" id="Fill-19" fill="#626262" sketch:type="MSShapeGroup"></path>
                <path d="M59.1504,23.63208 L59.1504,25.67328 L58.5852,25.67328 L58.5852,23.63208 L57.8064,23.63208 L57.8064,23.11248 L59.928,23.11248 L59.928,23.63208 L59.1504,23.63208 Z" id="Fill-21" fill="#626262" sketch:type="MSShapeGroup"></path>
                <path d="M61.72968,23.77152 L61.39008,24.60312 L62.06808,24.60312 L61.72968,23.77152 Z M62.50608,25.67352 L62.27088,25.09992 L61.18968,25.09992 L60.95448,25.67352 L60.37968,25.67352 L61.47888,23.09472 L61.99728,23.09472 L63.09408,25.67352 L62.50608,25.67352 Z" id="Fill-23" fill="#626262" sketch:type="MSShapeGroup"></path>
                <mask id="mask-4" sketch:name="Clip 26" fill="white">
                    <use xlink:href="#path-3"></use>
                </mask>
                <g id="Clip-26"></g>
                <path d="M64.0452,23.1132 L64.6128,23.1132 L64.6128,25.674 L64.0452,25.674 L64.0452,23.1132 Z" id="Fill-25" fill="#626262" sketch:type="MSShapeGroup" mask="url(#mask-4)"></path>
                <path d="M68.5758,25.69224 L68.0838,25.69224 L67.5066,24.01704 L66.9282,25.69224 L66.4374,25.69224 L65.565,23.11344 L66.1662,23.11344 L66.6978,24.84744 L67.2726,23.10504 L67.7538,23.10504 L68.3286,24.84744 L68.859,23.11344 L69.4506,23.11344 L68.5758,25.69224 Z" id="Fill-27" fill="#626262" sketch:type="MSShapeGroup" mask="url(#mask-4)"></path>
                <path d="M71.32032,23.77152 L70.98072,24.60312 L71.65992,24.60312 L71.32032,23.77152 Z M72.09432,25.67352 L71.86272,25.09992 L70.78032,25.09992 L70.54392,25.67352 L69.97032,25.67352 L71.06832,23.09472 L71.58912,23.09472 L72.68592,25.67352 L72.09432,25.67352 Z" id="Fill-28" fill="#626262" sketch:type="MSShapeGroup" mask="url(#mask-4)"></path>
                <path d="M75.41952,25.67352 L74.17872,24.04632 L74.17872,25.67352 L73.62192,25.67352 L73.62192,23.11272 L74.14392,23.11272 L75.34392,24.68952 L75.34392,23.11272 L75.89712,23.11272 L75.89712,25.67352 L75.41952,25.67352 Z" id="Fill-29" fill="#626262" sketch:type="MSShapeGroup" mask="url(#mask-4)"></path>
            </g>
            <g id="Group-52">
                <path d="M14.4528,72.35856 L14.4528,74.39976 L13.8888,74.39976 L13.8888,72.35856 L13.1112,72.35856 L13.1112,71.83776 L15.234,71.83776 L15.234,72.35856 L14.4528,72.35856 Z" id="Fill-31" fill="#626262" sketch:type="MSShapeGroup"></path>
                <path d="M17.03436,72.49812 L16.69476,73.32732 L17.37636,73.32732 L17.03436,72.49812 Z M17.80956,74.40012 L17.57316,73.82412 L16.49316,73.82412 L16.25916,74.40012 L15.68436,74.40012 L16.78236,71.82132 L17.30196,71.82132 L18.39996,74.40012 L17.80956,74.40012 Z" id="Fill-33" fill="#626262" sketch:type="MSShapeGroup"></path>
                <path d="M19.33716,74.4 L19.33716,71.838 L19.89996,71.838 L19.89996,73.8888 L21.17556,73.8888 L21.17556,74.4 L19.33716,74.4 Z" id="Fill-35" fill="#626262" sketch:type="MSShapeGroup"></path>
                <path d="M23.78208,74.4 L22.99008,73.3104 L22.69368,73.6176 L22.69368,74.4 L22.12848,74.4 L22.12848,71.838 L22.69368,71.838 L22.69368,72.9588 L23.72808,71.838 L24.41088,71.838 L23.36688,72.9252 L24.45888,74.4 L23.78208,74.4 Z" id="Fill-37" fill="#626262" sketch:type="MSShapeGroup"></path>
                <path d="M17.31096,77.18676 L17.31096,79.22796 L16.74456,79.22796 L16.74456,77.18676 L15.96576,77.18676 L15.96576,76.66716 L18.08856,76.66716 L18.08856,77.18676 L17.31096,77.18676 Z" id="Fill-39" fill="#626262" sketch:type="MSShapeGroup"></path>
                <path d="M21.01524,77.94852 C21.01524,77.50932 20.69484,77.14332 20.23884,77.14332 C19.78644,77.14332 19.46844,77.50212 19.46844,77.93892 L19.46844,77.94852 C19.46844,78.38652 19.79124,78.75132 20.24484,78.75132 C20.69964,78.75132 21.01524,78.39372 21.01524,77.95572 L21.01524,77.94852 Z M20.23884,79.27332 C19.45044,79.27332 18.88164,78.68412 18.88164,77.95572 L18.88164,77.94852 C18.88164,77.22012 19.45644,76.62372 20.24484,76.62372 C21.03804,76.62372 21.60444,77.21412 21.60444,77.93892 L21.60444,77.94852 C21.60444,78.67572 21.02964,79.27332 20.23884,79.27332 L20.23884,79.27332 Z" id="Fill-41" fill="#626262" sketch:type="MSShapeGroup"></path>
                <path d="M11.08248,82.03248 L11.08248,84.07368 L10.51728,84.07368 L10.51728,82.03248 L9.73848,82.03248 L9.73848,81.51288 L11.86008,81.51288 L11.86008,82.03248 L11.08248,82.03248 Z" id="Fill-43" fill="#626262" sketch:type="MSShapeGroup"></path>
                <path d="M13.66176,82.17192 L13.32216,83.00352 L14.00016,83.00352 L13.66176,82.17192 Z M14.43816,84.07392 L14.20296,83.50032 L13.12176,83.50032 L12.88776,84.07392 L12.31176,84.07392 L13.41096,81.49512 L13.92936,81.49512 L15.02616,84.07392 L14.43816,84.07392 Z" id="Fill-45" fill="#626262" sketch:type="MSShapeGroup"></path>
                <mask id="mask-6" sketch:name="Clip 48" fill="white">
                    <use xlink:href="#path-5"></use>
                </mask>
                <g id="Clip-48"></g>
                <path d="M15.9768,81.5136 L16.5444,81.5136 L16.5444,84.0744 L15.9768,84.0744 L15.9768,81.5136 Z" id="Fill-47" fill="#626262" sketch:type="MSShapeGroup" mask="url(#mask-6)"></path>
                <path d="M20.50788,84.09264 L20.01588,84.09264 L19.43868,82.41744 L18.86028,84.09264 L18.36948,84.09264 L17.49708,81.51384 L18.09828,81.51384 L18.62868,83.24784 L19.20468,81.50544 L19.68588,81.50544 L20.26068,83.24784 L20.79108,81.51384 L21.38268,81.51384 L20.50788,84.09264 Z" id="Fill-49" fill="#626262" sketch:type="MSShapeGroup" mask="url(#mask-6)"></path>
                <path d="M23.2524,82.17192 L22.9128,83.00352 L23.592,83.00352 L23.2524,82.17192 Z M24.0276,84.07392 L23.7948,83.50032 L22.7124,83.50032 L22.4772,84.07392 L21.9024,84.07392 L23.0004,81.49512 L23.5212,81.49512 L24.618,84.07392 L24.0276,84.07392 Z" id="Fill-50" fill="#626262" sketch:type="MSShapeGroup" mask="url(#mask-6)"></path>
                <path d="M27.3516,84.0738 L26.1108,82.4466 L26.1108,84.0738 L25.554,84.0738 L25.554,81.513 L26.0772,81.513 L27.2772,83.0898 L27.2772,81.513 L27.8292,81.513 L27.8292,84.0738 L27.3516,84.0738 Z" id="Fill-51" fill="#626262" sketch:type="MSShapeGroup" mask="url(#mask-6)"></path>
            </g>
            <g id="Group-59" transform="translate(46.800000, 58.800000)" fill="#121212" sketch:type="MSShapeGroup">
                <path d="M19.902,19.15668 C15.9132,19.15668 12.6792,22.38948 12.6792,26.37948 C12.6792,30.36948 15.9132,33.59988 19.902,33.59988 C23.892,33.59988 27.1212,30.36948 27.1212,26.37948 C27.1212,22.38948 23.892,19.15668 19.902,19.15668" id="Fill-53"></path>
                <path d="M17.79732,12.75588 L17.79732,0.24948 L9.46452,0.24948 L1.13172,0.24948 L1.13172,12.75588 L1.13172,33.59988 L9.46452,33.59988 L9.46452,12.75588 L17.79732,12.75588 Z" id="Fill-55"></path>
                <path d="M34.65468,0.2496 L26.17068,0.2496 L26.17068,12.756 L34.65468,12.756 L34.65468,33.6 L38.64948,33.6 L38.64948,12.756 L38.64948,0.2496 L34.65468,0.2496 Z" id="Fill-57"></path>
            </g>
        </g>
    </g>
</svg>